<svg xmlns="http://www.w3.org/2000/svg" version="1.1" xmlns:xlink="http://www.w3.org/1999/xlink" xmlns:svgjs="http://svgjs.dev/svgjs" width="1500" height="1500" viewBox="0 0 1500 1500"><rect width="1500" height="1500" fill="#000000"></rect><g transform="matrix(0.6666666666666666,0,0,0.6666666666666666,249.39393939393938,567.1659082221837)"><svg viewBox="0 0 396 145" data-background-color="#ffffff" preserveAspectRatio="xMidYMid meet" height="549" width="1500" xmlns="http://www.w3.org/2000/svg" xmlns:xlink="http://www.w3.org/1999/xlink"><g id="tight-bounds" transform="matrix(1,0,0,1,0.2400000000000091,-0.0657286672585542)"><svg viewBox="0 0 395.52 145.1314573345171" height="145.1314573345171" width="395.52"><g><svg viewBox="0 0 395.52 145.1314573345171" height="145.1314573345171" width="395.52"><g><svg viewBox="0 0 395.52 145.1314573345171" height="145.1314573345171" width="395.52"><g id="textblocktransform"><svg viewBox="0 0 395.52 145.1314573345171" height="145.1314573345171" width="395.52" id="textblock"><g><rect width="395.52" height="107.73204631305137" fill="none" stroke-width="9.018103199999999" stroke="#ffffff" data-fill-palette-color="none" data-stroke-palette-color="tertiary"></rect><rect width="395.52" height="37.39941102146575" y="107.73204631305137" fill="#ffffff" data-fill-palette-color="tertiary"></rect></g><g><svg viewBox="0 0 395.52 107.73204631305137" height="107.73204631305137" width="395.52"><g transform="matrix(1,0,0,1,23.607599999999998,23.607599999999998)"><svg width="348.3048" viewBox="4.58 -33.27 194.05999999999997 33.73069060773481" height="60.516846313051374" data-palette-color="#7a26c1"><path d="M26.82-28.97Q31.12-24.67 31.12-16.68 31.12-8.7 26.66-4.35 22.19 0 13.78 0L13.78 0 4.58 0 4.58-33.27 14.76-33.27Q22.52-33.27 26.82-28.97ZM8.44-3.34L13.14-3.34Q20.05-3.34 23.53-6.74 27.02-10.14 27.02-16.72 27.02-23.31 23.76-26.61 20.5-29.9 14.05-29.9L14.05-29.9 8.44-29.9 8.44-3.34ZM39.65-21.99Q42.72-25.38 48.03-25.38 53.33-25.38 56.42-21.9 59.5-18.43 59.5-12.42 59.5-6.42 56.42-2.96L56.42-2.96Q53.33 0.46 47.95 0.46L47.95 0.46Q42.87 0.51 39.68-3.06 36.5-6.62 36.57-12.49L36.57-12.49Q36.57-18.6 39.65-21.99ZM47.98-22.17L47.98-22.17Q40.49-22.17 40.49-12.49L40.49-12.49Q40.49-7.71 42.4-5.21 44.31-2.7 48.03-2.7 51.74-2.7 53.66-5.19 55.58-7.68 55.58-12.47 55.58-17.26 53.66-19.72 51.74-22.17 47.98-22.17ZM70.17-21.99L70.17-7.33Q70.17-5.08 71.22-3.87 72.26-2.65 74.1-2.65 75.93-2.65 77.57-3.11L77.57-3.11 77.57-0.23Q76.99 0.05 75.74 0.25 74.49 0.46 73.6 0.46L73.6 0.46Q66.38 0.46 66.38-7.15L66.38-7.15 66.38-21.99 62.81-21.99 62.81-23.81 66.38-25.38 67.97-30.71 70.17-30.71 70.17-24.92 77.4-24.92 77.4-21.99 70.17-21.99ZM101.66-3.51L101.66 0 83.13 0 83.13-33.27 87-33.27 87-3.51 101.66-3.51ZM117.28 0.46L117.28 0.46Q111.74 0.46 108.53-2.91L108.53-2.91Q105.35-6.27 105.35-12.29 105.35-18.3 108.31-21.84L108.31-21.84Q111.31-25.38 116.16-25.38 121-25.38 123.73-22.3 126.46-19.21 126.46-14.18L126.46-14.18 126.46-11.78 109.27-11.78Q109.39-7.41 111.49-5.12 113.59-2.83 117.55-2.83 121.5-2.83 125.37-4.52L125.37-4.52 125.37-1.16Q123.42-0.3 121.6 0.08 119.78 0.46 117.28 0.46ZM109.37-14.86L122.41-14.86Q122.41-18.43 120.82-20.32 119.23-22.22 116.26-22.22 113.29-22.22 111.48-20.27 109.67-18.33 109.37-14.86L109.37-14.86ZM134.97-6.85L134.97-6.85Q134.97-4.83 136.21-3.74 137.45-2.65 139.67-2.65L139.67-2.65Q143.24-2.65 145.24-4.59 147.23-6.52 147.23-10.01L147.23-10.01 147.23-12.26 143.47-12.11Q138.97-11.93 136.97-10.69 134.97-9.45 134.97-6.85ZM151.02-17.01L151.02 0 148.22 0 147.46-3.54 147.28-3.54Q145.41-1.21 143.57-0.38 141.72 0.46 138.94 0.46L138.94 0.46Q135.2 0.46 133.11-1.47 131.03-3.39 131.03-6.9L131.03-6.9Q131.03-14.43 143.09-14.81L143.09-14.81 147.33-14.94 147.33-16.48Q147.33-19.46 146.07-20.84 144.81-22.22 141.86-22.22 138.92-22.22 134.97-20.32L134.97-20.32 133.81-23.21Q137.75-25.35 142.25-25.35 146.75-25.35 148.89-23.36 151.02-21.36 151.02-17.01L151.02-17.01ZM170.16-25.38L170.16-25.38Q171.88-25.38 173.14-25.13L173.14-25.13 172.63-21.61Q171.14-21.94 169.9-21.94L169.9-21.94Q166.87-21.94 164.72-19.49 162.57-17.04 162.57-13.37L162.57-13.37 162.57 0 158.78 0 158.78-24.92 161.92-24.92 162.35-20.32 162.52-20.32Q163.91-22.78 165.87-24.08 167.83-25.38 170.16-25.38ZM198.64-16.25L198.64 0 194.85 0 194.85-16.13Q194.85-19.21 193.46-20.69 192.07-22.17 189.14-22.17L189.14-22.17Q185.22-22.17 183.4-20.06 181.58-17.95 181.58-13.07L181.58-13.07 181.58 0 177.79 0 177.79-24.92 180.87-24.92 181.48-21.51 181.66-21.51Q182.82-23.33 184.92-24.36 187.01-25.38 189.59-25.38L189.59-25.38Q194.14-25.38 196.39-23.18 198.64-20.98 198.64-16.25L198.64-16.25Z" opacity="1" transform="matrix(1,0,0,1,0,0)" fill="#ffffff" class="wordmark-text-0" data-fill-palette-color="primary" id="text-0"></path></svg></g></svg></g></svg></g></svg></g></svg></g><defs></defs></svg><rect width="395.52" height="145.1314573345171" fill="none" stroke="none" visibility="hidden"></rect></g></svg></g></svg>